<svg viewBox="0 0 512 512" xmlns="http://www.w3.org/2000/svg"><path d="M425.295 36.399H86.705C38.896 36.399 0 75.296 0 123.105v265.789c0 47.81 38.896 86.707 86.705 86.707h338.59c47.81 0 86.705-38.896 86.705-86.707V123.105c0-47.809-38.896-86.706-86.705-86.706zm-24.289 64L255.998 240.078l-145.01-139.679zm24.289 311.202H86.705c-12.52 0-22.705-10.186-22.705-22.707V144.001l169.798 163.555c6.197 5.968 14.198 8.953 22.2 8.953s16.003-2.984 22.2-8.953L448 143.994v244.9c0 12.521-10.186 22.707-22.705 22.707z" style="fill:#fff"/></svg>