<svg xmlns="http://www.w3.org/2000/svg" viewBox="0 0 512 512" style="enable-background:new 0 0 512 512" xml:space="preserve"><path d="M501.974 41.949a30.939 30.939 0 0 0-30.555-6.565L21.231 183.785C8.962 187.829.642 198.781.035 211.684c-.606 12.904 6.649 24.589 18.483 29.768l111.335 48.712 33.591 155.795c1.395 6.472 4.68 12.237 11.639 14.01 7.039 1.793 12.012-2.054 17.264-5.986l82.62-61.865 96.589 79.039c5.626 4.606 12.502 7.008 19.513 7.008a31.091 31.091 0 0 0 9.986-1.657c10.166-3.447 17.702-11.744 20.159-22.193L511.18 71.813a30.938 30.938 0 0 0-9.206-29.864zm-302.43 276.128c-.055.13-.109.277-.16.453l-18.624 65.068-20.784-96.395 142.917-79.405-99.921 104.478a15.03 15.03 0 0 0-3.428 5.801zm5.911 88.525 8.459-29.555 8.091-28.269 28.991 23.724-45.541 34.1zM481.908 64.927l-89.965 382.502c-.045.19-.105.452-.545.601-.436.148-.648-.021-.798-.145l-105.691-86.488-.008-.007-48.969-40.072L393.255 156.82a15.035 15.035 0 0 0 1.035-19.579 15.034 15.034 0 0 0-19.204-3.955L142.135 262.715 30.572 213.902c-.34-.148-.527-.231-.5-.806.027-.573.221-.638.573-.754l450.188-148.4c.218-.071.464-.153.826.177.362.332.302.584.249.808z" style="fill:#fff"/></svg>