<svg viewBox="0 0 16.933 16.933" xmlns="http://www.w3.org/2000/svg"><path d="M3.164 280.848c-.265.008-.497.148-.692.342l-.324.324 3.517 3.581.51-.51a.799.799 0 0 0 0-1.124l-2.271-2.27c-.22-.22-.476-.351-.74-.343zm-1.392 1.04-.372.372c-.61.61-.606 1.408-.606 1.776 0 1.524.61 4.158 4.31 7.859 3.702 3.701 6.336 4.31 7.86 4.31.368 0 1.166.005 1.776-.605l.337-.337-3.518-3.581-.368.37c-.22.218-.38.244-.537.226a.95.95 0 0 1-.438-.201c-.647-.501-1.694-1.218-2.885-2.408-1.19-1.191-1.907-2.239-2.408-2.885a.944.944 0 0 1-.2-.436c-.02-.157.01-.32.228-.54l.34-.339zm11.204 8.706a.791.791 0 0 0-.56.23l-.482.483 3.517 3.581.359-.358c.194-.195.333-.43.341-.694.008-.264-.121-.52-.341-.74l-2.272-2.271a.792.792 0 0 0-.562-.231z" style="fill:#fff" transform="translate(0 -280.067)"/></svg>