<svg xmlns="http://www.w3.org/2000/svg" viewBox="0 0 409.61 409.61" style="enable-background:new 0 0 409.61 409.61" xml:space="preserve"><path d="M204.805 0C91.704 0 .005 91.674.005 204.774c0 39.936 11.602 77.102 31.386 108.6L1.306 386.012c-3.599 8.699.532 18.667 9.236 22.298a17.063 17.063 0 0 0 13.066 0l72.637-30.1c31.493 19.768 68.623 31.401 108.559 31.401 113.085 0 204.8-91.735 204.8-204.836S317.891 0 204.805 0zm0 375.475c-31.887 0-63.165-9.068-90.435-26.163l-14.93-9.364-50.836 21.064 21.064-50.867-9.365-14.935c-17.137-27.264-26.163-58.537-26.163-90.435 0-94.09 76.564-170.644 170.665-170.644S375.47 110.679 375.47 204.774c0 94.101-76.564 170.701-170.665 170.701z" style="fill:#fff"/><path d="m240.988 216.847-18.099 18.099-48.251-48.271 18.099-18.099-36.198-60.324-24.12 24.125c-13.332 13.332-13.332 34.934 0 48.266-.015 0 96.502 96.532 96.502 96.532 13.353 13.332 34.985 13.332 48.287 0l24.161-24.1-60.381-36.228z" style="fill:#fff"/></svg>